<?xml version="1.0" encoding="UTF-8"?>
<svg version="1.1" xmlns="http://www.w3.org/2000/svg" width="1260" height="333">
<path d="M0 0 C31.96752384 27.4061424 52.89958398 66.2802909 56.25 108.5 C57.15712794 130.39024233 56.16732121 151.60758313 49.25 172.5 C44.98355536 171.98353565 42.97067977 170.75068028 39.875 167.8125 C39.00875 167.00167969 38.1425 166.19085938 37.25 165.35546875 C36.77433594 164.90220215 36.29867188 164.44893555 35.80859375 163.98193359 C33.48976106 161.77715377 31.14438448 159.60112585 28.80249023 157.42089844 C26.85646807 155.60773326 24.9144127 153.79038785 22.97265625 151.97265625 C18.82106331 148.09225693 14.6273137 144.25988785 10.42578125 140.43359375 C7.99710567 138.20659126 5.60975762 135.93981834 3.23046875 133.66015625 C2.52978271 132.99234131 1.82909668 132.32452637 1.10717773 131.63647461 C-0.25685026 130.3343976 -1.6157742 129.02694372 -2.96850586 127.71313477 C-11.21346833 119.75712803 -11.21346833 119.75712803 -21.75 116.5 C-24.1127974 117.42824183 -26.44747517 118.43097061 -28.75 119.5 C-31.0625 120.390625 -31.0625 120.390625 -33.75 120.5 C-36.17203393 119.05044939 -38.1109159 117.67000836 -40.25 115.875 C-40.85658447 115.38153076 -41.46316895 114.88806152 -42.08813477 114.37963867 C-50.83289898 107.12575536 -58.79551649 98.97972502 -66.14453125 90.32421875 C-68.56266348 87.57660865 -71.19001863 85.05143204 -73.796875 82.484375 C-75.61987667 80.6322053 -77.31603666 78.7282482 -79 76.75 C-90.85464741 62.07275672 -90.85464741 62.07275672 -107.25 54.75 C-111.88769299 55.07614994 -114.51380297 56.91960211 -117.7890625 60.1171875 C-120.88614988 63.88058053 -123.23439333 68.04476026 -125.70703125 72.234375 C-131.74610411 81.88765398 -140.46592141 88.87340936 -149.09570312 96.09667969 C-151.42583007 98.07329859 -153.68226264 100.12618432 -155.9375 102.1875 C-160.17708043 106.03851005 -164.57932112 109.64843955 -169.03125 113.25 C-171.67147729 115.43501569 -174.2172972 117.69171391 -176.75 120 C-180.97364277 123.84510875 -185.3369793 127.46758171 -189.77734375 131.05859375 C-193.08752529 133.7772054 -196.32468887 136.57113617 -199.5625 139.375 C-206.45098637 145.31474453 -213.5299052 150.96971462 -220.75 156.5 C-221.69746094 157.22703125 -221.69746094 157.22703125 -222.6640625 157.96875 C-230.19183307 163.72704462 -237.81549958 169.35233923 -245.5625 174.8125 C-246.23845215 175.29912109 -246.9144043 175.78574219 -247.61083984 176.28710938 C-249.26995206 177.43987192 -251.00546409 178.48112353 -252.75 179.5 C-255.75 178.5 -255.75 178.5 -256.77734375 176.6640625 C-267.16975835 147.67234795 -268.37447795 113.28370433 -260.75 83.5 C-260.56808105 82.75202148 -260.38616211 82.00404297 -260.19873047 81.23339844 C-253.47018055 54.01854864 -238.85106253 30.73034832 -219.75 10.5 C-218.96625 9.64019531 -218.1825 8.78039063 -217.375 7.89453125 C-160.74694323 -51.92748604 -61.34479906 -51.37493872 0 0 Z " fill="#ED98A1" transform="translate(357.75,44.5)"/>
<path d="M0 0 C4.6335791 2.75328613 7.82386148 6.95482318 11.125 11.125 C15.60864998 16.76422987 20.63291055 21.48753488 25.984375 26.2734375 C43.9243602 42.37298591 44.60955785 68.23610995 46 91 C46.23296518 96.10296772 46.40496155 101.20670477 46.5625 106.3125 C46.60585709 107.65039916 46.64947567 108.98828988 46.69335938 110.32617188 C46.7981277 113.55070824 46.90030017 116.77530363 47 120 C49.44674018 117.76615511 50.94409739 115.55167401 52.49609375 112.6328125 C52.96635986 111.7572168 53.43662598 110.88162109 53.92114258 109.97949219 C54.6717395 108.56651855 54.6717395 108.56651855 55.4375 107.125 C56.51142798 105.13195339 57.58699291 103.1397881 58.6640625 101.1484375 C59.21481445 100.12975586 59.76556641 99.11107422 60.33300781 98.06152344 C78.40919719 64.86360094 78.40919719 64.86360094 84 63 C86.29296875 64.52734375 86.29296875 64.52734375 89.1875 66.9375 C95.48346674 72.02127486 102.11747774 76.49203823 108.875 80.9375 C123.61742871 90.69708856 123.61742871 90.69708856 129.9375 95.1875 C130.55157715 95.60829834 131.1656543 96.02909668 131.79833984 96.46264648 C134.29382282 98.26753946 135.83875651 99.61007277 137.02734375 102.484375 C136.92748365 111.67150409 127.36776883 121.154016 122 128 C121.07767578 129.23169922 121.07767578 129.23169922 120.13671875 130.48828125 C98.16852328 159.23039566 65.90374283 178.46632016 31 187 C29.73542969 187.3196875 28.47085938 187.639375 27.16796875 187.96875 C6.43033059 192.5688838 -19.44322126 192.27424959 -40 187 C-41.22251465 186.70198486 -41.22251465 186.70198486 -42.46972656 186.39794922 C-70.76607191 179.3894852 -95.8228264 166.08180256 -117 146 C-117.88429687 145.16855469 -118.76859375 144.33710938 -119.6796875 143.48046875 C-124.84641063 138.48206663 -129.5769294 133.29910554 -134.0625 127.6875 C-134.527771 127.11298096 -134.99304199 126.53846191 -135.47241211 125.9465332 C-138.19748959 122.44908859 -139.85364727 119.28101217 -141 115 C-131.01518359 109.26482081 -121.01846258 103.55484778 -110.953125 97.96191406 C-96.47335453 89.90891989 -82.19462056 81.54475419 -68 73 C-66.90510254 72.34241699 -65.81020508 71.68483398 -64.68212891 71.00732422 C-52.38607302 63.60193188 -40.26601493 55.97522179 -28.375 47.9375 C-27.35003418 47.2472876 -26.32506836 46.5570752 -25.26904297 45.84594727 C-11.40261293 36.82799428 -11.40261293 36.82799428 -3.5234375 22.890625 C-3.26069168 19.21218357 -3.88860216 17.16530002 -5.9375 14.125 C-9.82256237 11.42924244 -13.37612644 10.67494451 -18 10 C-13.29443276 3.90946085 -8.39365839 -1.54169236 0 0 Z " fill="#ED98A1" transform="translate(259,138)"/>
<path d="M0 0 C2.84375 1.8203125 2.84375 1.8203125 5.5 4.125 C6.91732422 5.34703125 6.91732422 5.34703125 8.36328125 6.59375 C11.11018103 9.1005504 13.76005689 11.6624763 16.33984375 14.33984375 C18.06678875 16.06678875 19.87882391 17.61873621 21.75 19.1875 C25.05679801 22.03913482 27.97044447 25.0992855 30.88671875 28.34765625 C36.82252413 34.89202642 42.99626624 41.18241079 49.2434082 47.42871094 C51.06947078 49.2569792 52.88733626 51.09315067 54.70507812 52.9296875 C61.16300664 59.41746372 67.64953998 65.51543412 75 71 C75.12375 69.906875 75.2475 68.81375 75.375 67.6875 C76 64 76 64 78 61 C81.12593444 60.33015691 83.12952245 60.50207978 85.92578125 62.1015625 C90.07223175 65.11277121 93.67828927 68.55847702 97.23828125 72.23046875 C99.61402134 74.61674427 102.15001436 76.78661432 104.69921875 78.984375 C107.50773066 81.44480309 110.25460187 83.96976785 113 86.5 C116.93131164 90.11985424 120.89906641 93.68752422 124.9375 97.1875 C127.50886576 99.44718506 130.034551 101.75437265 132.5625 104.0625 C133.50738281 104.90683594 134.45226562 105.75117188 135.42578125 106.62109375 C138 109 138 109 139.73046875 110.97265625 C141.45509428 112.84802026 142.65329584 113.97250059 145 115 C147.31719952 114.85287622 149.63028015 114.63537591 151.9375 114.375 C157.50681795 114.09321903 160.02473358 114.59779882 164.25 118.29296875 C167.63994543 121.60839702 170.80942641 125.10825982 173.86108398 128.73657227 C175.73681254 130.72149173 177.64535086 132.46219309 179.71118164 134.24194336 C184.14073502 138.06876314 188.26119354 142.15135029 192.375 146.3125 C193.14376465 147.08505127 193.9125293 147.85760254 194.70458984 148.65356445 C197.9585983 151.92376036 201.20656266 155.1999349 204.45507812 158.47558594 C206.84295352 160.88165285 209.23390793 163.28463038 211.625 165.6875 C212.34606934 166.41686768 213.06713867 167.14623535 213.81005859 167.89770508 C217.81692155 171.92363063 221.91440597 175.75598417 226.25146484 179.42529297 C228.81353631 181.73265976 230.88111894 184.28518364 233 187 C229.74920878 186.38691615 227.71617557 185.2822267 225.0859375 183.296875 C224.33441406 182.73548828 223.58289063 182.17410156 222.80859375 181.59570312 C222.00550781 180.98662109 221.20242188 180.37753906 220.375 179.75 C218.65425107 178.46273223 216.93288247 177.17629243 215.2109375 175.890625 C214.33920898 175.23771484 213.46748047 174.58480469 212.56933594 173.91210938 C208.74365878 171.06502618 204.87388196 168.2809399 201 165.5 C194.80284205 161.04065503 188.64022783 156.53739483 182.5 152 C174.12062325 145.80974505 165.68892429 139.69525542 157.23388672 133.60888672 C153.48640202 130.90987861 149.74349511 128.20453723 146 125.5 C145.25814453 124.96439453 144.51628906 124.42878906 143.75195312 123.87695312 C139.98751228 121.15909879 136.224689 118.43905269 132.46484375 115.71484375 C124.39355867 109.87003014 116.30620103 104.05099919 108.14160156 98.33691406 C104.71286661 95.93437931 101.31483424 93.50365778 97.96484375 90.9921875 C97.00819824 90.28292114 97.00819824 90.28292114 96.03222656 89.55932617 C94.83490043 88.66893767 93.64490906 87.76856753 92.46386719 86.85668945 C89.55061968 84.58066628 89.55061968 84.58066628 86.02368164 84.19384766 C77.81376928 87.46434236 73.06254538 99.06714321 68.75 106.3125 C67.35434635 108.64526262 65.95194038 110.97364172 64.546875 113.30078125 C63.63180176 114.83472534 63.63180176 114.83472534 62.69824219 116.3996582 C61.2685147 118.58885134 59.93655301 120.26723628 58 122 C56.68906067 115.33756618 55.68328081 108.70644182 54.96142578 101.95532227 C51.41010445 68.77958969 39.14479838 52.969695 15 31 C14.27748047 30.3409668 13.55496094 29.68193359 12.81054688 29.00292969 C12.10478516 28.37032227 11.39902344 27.73771484 10.671875 27.0859375 C10.03862305 26.51665527 9.40537109 25.94737305 8.75292969 25.36083984 C5.60657833 22.91825454 2.21424468 22.52683542 -1.703125 22.60546875 C-9.88923379 24.01158608 -16.22310051 30.83185366 -22.01171875 36.29296875 C-25.19771874 39.24733764 -28.61217039 41.86438977 -32.0625 44.5 C-42.37103764 52.08748653 -42.37103764 52.08748653 -50 62 C-41.98733093 59.82455359 -34.64171724 57.11223708 -27.20288086 53.46264648 C-21.88188393 50.86048116 -17.12309922 48.69323942 -11.125 48.875 C-9.95324219 48.90207031 -9.95324219 48.90207031 -8.7578125 48.9296875 C-7.88769531 48.96449219 -7.88769531 48.96449219 -7 49 C-7.13277159 54.31086342 -9.14221239 57.10909579 -12.64453125 60.828125 C-24.77950837 72.01725813 -40.10279843 80.24676574 -54 89 C-54.92296875 89.58217285 -55.8459375 90.1643457 -56.796875 90.76416016 C-87.03148563 109.78937835 -118.21930715 127.13485006 -149.99072266 143.44677734 C-154.24042385 145.64023824 -158.46361963 147.8823682 -162.6875 150.125 C-188.33262591 163.68123366 -214.54545236 176.1136052 -241 188 C-241.33 187.34 -241.66 186.68 -242 186 C-241.41025391 185.62528564 -240.82050781 185.25057129 -240.21289062 184.86450195 C-205.3356982 162.67991651 -170.47812461 140.26218918 -137 116 C-136.27409668 115.47535156 -135.54819336 114.95070313 -134.80029297 114.41015625 C-119.18744822 103.10283988 -104.29728425 91.09648455 -89.72216797 78.48828125 C-66.72049702 58.61045504 -66.72049702 58.61045504 -55.375 49.4375 C-50.61910654 45.56771187 -46.08034881 41.49950972 -41.56640625 37.3515625 C-39.31654764 35.29004822 -37.04666651 33.25903005 -34.75 31.25 C-34.11449219 30.69183594 -33.47898438 30.13367188 -32.82421875 29.55859375 C-31.66184115 28.56547028 -30.47839526 27.596139 -29.26953125 26.66015625 C-21.0163413 20.14447997 -15.2764237 10.94677397 -10.19140625 1.86328125 C-7.5772568 -2.22507706 -4.26522967 -0.94085949 0 0 Z " fill="#3C3B48" transform="translate(255,108)"/>
<path d="M0 0 C18 0 18 0 21.890625 3.05078125 C23.13647461 5.07788086 23.13647461 5.07788086 24.25 7.3125 C25.18998108 8.88522775 26.13415904 10.45545303 27.08203125 12.0234375 C27.55205566 12.84424805 28.02208008 13.66505859 28.50634766 14.51074219 C31.02174373 18.70279488 33.99066901 22.54276835 36.9375 26.4375 C38.12448624 28.03751382 39.30938303 29.63907984 40.4921875 31.2421875 C41.07581055 32.03206055 41.65943359 32.82193359 42.26074219 33.63574219 C45.05071245 37.42828459 47.80891364 41.2434933 50.5625 45.0625 C51.08827637 45.79162598 51.61405273 46.52075195 52.15576172 47.27197266 C54.36067548 50.33183919 56.56357183 53.39315242 58.765625 56.45507812 C59.95578694 58.10966195 61.14645417 59.76388244 62.33764648 61.41772461 C63.45552176 62.96977536 64.57229105 64.52262354 65.68774414 66.07641602 C68.3684194 69.79746786 71.09216353 73.45062647 74 77 C80.41420637 68.78435695 86.59635188 60.44231607 92.62109375 51.93798828 C95.1657763 48.3615559 97.74034879 44.8067012 100.3125 41.25 C100.85793457 40.49533447 101.40336914 39.74066895 101.96533203 38.96313477 C104.20520669 35.86436819 106.44589282 32.76618873 108.68652344 29.66796875 C109.80302071 28.1239458 110.91850694 26.57919122 112.03295898 25.03369141 C113.12941794 23.52029654 114.23303513 22.01206021 115.34399414 20.50927734 C118.33572971 16.44008436 121.04597129 12.38021384 123.42016602 7.91845703 C125.29203513 5.04209491 127.71327545 2.55895366 130 0 C135.61 0 141.22 0 147 0 C147 32.01 147 64.02 147 97 C141.06 97 135.12 97 129 97 C128.67 76.21 128.34 55.42 128 34 C120.05568754 44.78156691 112.13758812 55.56079983 104.3125 66.42578125 C100.16897383 72.16306734 95.96503401 77.85570151 91.75585938 83.54492188 C90.93311523 84.65770508 90.93311523 84.65770508 90.09375 85.79296875 C89.29650513 86.85342407 89.29650513 86.85342407 88.4831543 87.93530273 C86.98231046 89.96048317 86.98231046 89.96048317 85.77661133 92.06665039 C84.26285193 94.5620502 82.9502927 96.63859815 80.14794922 97.7043457 C77.94284515 98.05611354 75.919197 98.12733523 73.6875 98.0625 C72.92276367 98.04364746 72.15802734 98.02479492 71.37011719 98.00537109 C67.82771082 97.74822425 65.55300888 97.3683767 62.56640625 95.37890625 C60.42289148 92.71910405 58.74867025 89.93612343 57 87 C55.52503104 84.90130886 54.00704657 82.83797506 52.48535156 80.77294922 C50.77979335 78.45556058 49.09988668 76.12144386 47.42578125 73.78125 C44.12980547 69.17829774 40.81670586 64.58804292 37.5 60 C31 51 24.5 42 18 33 C17.67 54.12 17.34 75.24 17 97 C11.39 97 5.78 97 0 97 C0 64.99 0 32.98 0 0 Z " fill="#ED9BA4" transform="translate(675,87)"/>
<path d="M0 0 C1.93483839 0.00373655 3.86967869 0.00658049 5.80451965 0.00857544 C10.86297964 0.01616134 15.92132227 0.03576577 20.97973633 0.0579834 C26.15509453 0.07855124 31.33047196 0.08760041 36.50585938 0.09765625 C46.63547617 0.11901705 56.76497552 0.15415732 66.89453125 0.1953125 C66.89453125 5.4753125 66.89453125 10.7553125 66.89453125 16.1953125 C65.25414886 16.20411186 65.25414886 16.20411186 63.58062744 16.21308899 C53.28042706 16.2702731 42.98043869 16.34301212 32.68045425 16.43102741 C27.38496671 16.47577713 22.08955693 16.51502314 16.79394531 16.54174805 C11.68448817 16.56773506 6.57532951 16.60810485 1.46605682 16.65849876 C-0.48436016 16.67519864 -2.4348288 16.68669344 -4.38530731 16.69292641 C-7.11493814 16.70253356 -9.84379992 16.73055201 -12.57324219 16.76293945 C-13.38172607 16.76150436 -14.19020996 16.76006927 -15.02319336 16.7585907 C-18.27923506 16.81331963 -20.68572775 16.96775017 -23.57623291 18.53483582 C-26.44943245 21.65461677 -26.38086166 25.10054826 -26.328125 29.19140625 C-26.00302431 32.1173125 -24.95198758 33.93845616 -23.10546875 36.1953125 C-19.72955199 37.32061809 -17.13309079 37.34049293 -13.57373047 37.36889648 C-12.58526375 37.378927 -12.58526375 37.378927 -11.576828 37.38916016 C-10.14618647 37.40320042 -8.71552267 37.41509774 -7.28484726 37.42510796 C-5.01372031 37.44156155 -2.74275595 37.46480506 -0.47171021 37.49000549 C5.98557362 37.56063216 12.44292638 37.62064202 18.90039062 37.67211914 C22.85266936 37.70410267 26.80476447 37.74543294 30.75689316 37.79231453 C32.25660742 37.80822798 33.75636395 37.82059809 35.25613785 37.82922173 C46.50970441 37.89482279 56.70420972 37.96392572 65.89453125 45.1953125 C72.36065698 52.00176063 72.23277996 58.63036195 72.20703125 67.5703125 C72.22314453 68.68148437 72.23925781 69.79265625 72.25585938 70.9375 C72.26042837 78.61340501 71.30284268 83.35985355 67.20703125 89.8828125 C62.89495897 94.19488478 57.03431471 96.93952446 50.90307236 97.31836033 C49.8466976 97.31697764 49.8466976 97.31697764 48.76898193 97.31556702 C47.95572449 97.31694168 47.14246704 97.31831635 46.30456543 97.31973267 C45.42127563 97.31613739 44.53798584 97.31254211 43.62792969 97.30883789 C42.69100281 97.30898392 41.75407593 97.30912994 40.78875732 97.3092804 C37.69378337 97.30858407 34.59886969 97.30080473 31.50390625 97.29296875 C29.35727979 97.29110358 27.21065291 97.28968014 25.06402588 97.28868103 C19.41531193 97.28486368 13.76662371 97.27504004 8.11791992 97.26397705 C2.35335641 97.25374614 -3.41121127 97.2491798 -9.17578125 97.24414062 C-20.48568838 97.2334171 -31.79557643 97.21635003 -43.10546875 97.1953125 C-43.10546875 92.2453125 -43.10546875 87.2953125 -43.10546875 82.1953125 C-41.98682434 82.18722565 -40.86817993 82.17913879 -39.71563721 82.17080688 C-29.18002157 82.09336508 -18.64453539 82.00563068 -8.1090889 81.90778542 C-2.69254372 81.85781236 2.72398186 81.81148231 8.140625 81.7734375 C13.36673164 81.73659759 18.59267471 81.69024098 23.81864166 81.63724899 C25.81372461 81.61869819 27.80884264 81.60359278 29.80397797 81.59196854 C32.59572649 81.57511794 35.38709982 81.54608559 38.17871094 81.51416016 C39.41948898 81.51091988 39.41948898 81.51091988 40.68533325 81.50761414 C46.11572359 81.4776118 46.11572359 81.4776118 50.89453125 79.1953125 C52.58532345 75.81372809 52.16342184 72.03583438 52.20703125 68.3203125 C52.23603516 67.50433594 52.26503906 66.68835938 52.29492188 65.84765625 C52.35948662 60.94811819 52.35948662 60.94811819 50.125 56.6875 C45.98500967 53.91783922 42.09216063 54.06766562 37.18920898 54.0534668 C36.19071175 54.04825516 36.19071175 54.04825516 35.17204285 54.04293823 C33.72940844 54.03560115 32.28676289 54.03024488 30.8441143 54.02664757 C28.55134476 54.01944715 26.25878493 54.00375133 23.96607971 53.98530579 C17.44803865 53.93302475 10.93011117 53.88494724 4.41186523 53.86938477 C0.41938689 53.85922996 -3.57256398 53.82971464 -7.56483269 53.78806496 C-9.07684248 53.775852 -10.58892712 53.77061572 -12.10098457 53.77286339 C-31.74748189 53.79486874 -31.74748189 53.79486874 -39.33082581 47.28495789 C-46.06585151 40.31163112 -46.51466618 33.00733005 -46.35546875 23.64453125 C-45.91631868 17.58563256 -44.66206843 13.14106211 -40.85546875 8.3828125 C-28.71237741 -1.2764647 -14.78175152 -0.08433105 0 0 Z " fill="#EE9DA5" transform="translate(1040.10546875,86.8046875)"/>
<path d="M0 0 C12.33375 -0.061875 24.6675 -0.12375 37.375 -0.1875 C41.25169434 -0.21481201 45.12838867 -0.24212402 49.12255859 -0.27026367 C53.90161133 -0.28381348 53.90161133 -0.28381348 56.14761353 -0.28633118 C57.69720046 -0.29090084 59.24677755 -0.30137409 60.79629517 -0.31672668 C81.78314404 -0.51404663 81.78314404 -0.51404663 89 5.5 C94.64888237 12.56110297 94.44260376 19.22945715 94 28 C93.0192387 33.61708744 91.29718133 36.26823727 87 40 C87.763125 40.350625 88.52625 40.70125 89.3125 41.0625 C92.6907456 43.49797939 93.85987958 46.10632866 95 50 C95.40132505 52.9932875 95.42081711 55.92120711 95.375 58.9375 C95.38660156 59.69740234 95.39820313 60.45730469 95.41015625 61.24023438 C95.37749508 67.61460632 94.34261395 73.52352239 89.8125 78.3125 C83.58709131 82.04774521 78.0486984 83.44997164 70.83984375 83.34057617 C70.0558168 83.34093778 69.27178986 83.34129938 68.46400452 83.34167194 C65.95489937 83.3394532 63.44648372 83.31670312 60.9375 83.29296875 C59.37695639 83.28855154 57.81640833 83.28549493 56.25585938 83.28381348 C50.50383796 83.26815846 44.75191203 83.22627462 39 83.1875 C26.13 83.125625 13.26 83.06375 0 83 C0 55.61 0 28.22 0 0 Z M17 13 C17 19.93 17 26.86 17 34 C24.4381412 34.04949116 31.87618623 34.08576314 39.31445312 34.10986328 C41.84409251 34.11991182 44.37372031 34.13355288 46.90332031 34.15087891 C50.54234683 34.1751772 54.18121957 34.18649475 57.8203125 34.1953125 C59.51282639 34.21079636 59.51282639 34.21079636 61.23953247 34.22659302 C68.82795376 34.27921755 68.82795376 34.27921755 76 32 C77.41693757 29.16612485 77.1699013 26.71970627 77.1875 23.5625 C77.20167969 22.40878906 77.21585938 21.25507813 77.23046875 20.06640625 C77.23925088 16.82719832 77.23925088 16.82719832 75 14 C71.90489905 12.82140353 68.87299122 12.87880142 65.58886719 12.88647461 C63.96763947 12.88658791 63.96763947 12.88658791 62.31365967 12.88670349 C61.15312073 12.89186478 59.99258179 12.89702606 58.796875 12.90234375 C57.00748505 12.90446617 57.00748505 12.90446617 55.1819458 12.90663147 C51.37127171 12.91222962 47.56065634 12.92478181 43.75 12.9375 C41.16666752 12.94251524 38.58333411 12.9470781 36 12.95117188 C29.66664404 12.96219845 23.33333197 12.97946186 17 13 Z M17 47 C17 54.59 17 62.18 17 70 C24.88367043 70.09887388 32.76697995 70.17147304 40.65112305 70.21972656 C43.33327823 70.23758325 46.0150546 70.26541436 48.69702148 70.30175781 C52.55203066 70.35027542 56.40645998 70.37296994 60.26171875 70.390625 C61.46084396 70.41127014 62.65996918 70.43191528 63.89543152 70.45318604 C70.35239495 70.50328694 70.35239495 70.50328694 76.2590332 68.19848633 C78.81860551 64.96626804 78.59536185 62.50229869 78.5 58.4375 C78.50257813 57.76525391 78.50515625 57.09300781 78.5078125 56.40039062 C78.44985535 53.48224823 78.35632546 51.48202916 76.59375 49.09765625 C73.45668926 46.93708256 71.41540817 46.87799236 67.63232422 46.88647461 C65.95080765 46.88658791 65.95080765 46.88658791 64.23532104 46.88670349 C63.02071198 46.89186478 61.80610291 46.89702606 60.5546875 46.90234375 C58.69446457 46.90446617 58.69446457 46.90446617 56.79666138 46.90663147 C53.49881867 46.91128904 50.20102454 46.92027561 46.90319824 46.93133545 C43.53833613 46.94156269 40.17346692 46.94613191 36.80859375 46.95117188 C30.20570761 46.96221732 23.60286325 46.97949029 17 47 Z " fill="#393846" transform="translate(935,222)"/>
<path d="M0 0 C6.6 0 13.2 0 20 0 C20 12.87 20 25.74 20 39 C45.41 39 70.82 39 97 39 C97 26.13 97 13.26 97 0 C103.27 0 109.54 0 116 0 C116 32.01 116 64.02 116 97 C109.73 97 103.46 97 97 97 C97 82.81 97 68.62 97 54 C71.59 54 46.18 54 20 54 C20 68.19 20 82.38 20 97 C13.4 97 6.8 97 0 97 C0 64.99 0 32.98 0 0 Z " fill="#ED9CA5" transform="translate(504,87)"/>
<path d="M0 0 C6.27 0 12.54 0 19 0 C19.01981934 2.31684814 19.03963867 4.63369629 19.06005859 7.02075195 C19.12691052 14.66834108 19.20455073 22.31579312 19.28752708 29.96322346 C19.33751213 34.60069591 19.38384193 39.23814533 19.421875 43.87573242 C19.45869997 48.34972458 19.50505223 52.82352511 19.55806351 57.29735374 C19.57662232 59.00577629 19.59172477 60.71423993 19.60334396 62.42272377 C19.62018112 64.81237106 19.64920948 67.20157808 19.68115234 69.59106445 C19.68331253 70.30028549 19.68547272 71.00950653 19.68769836 71.74021912 C19.7499709 75.37730614 19.92371146 76.88556719 22 80 C25.45256466 81.15085489 28.15182056 81.14111525 31.79467773 81.16113281 C32.82445236 81.16858017 32.82445236 81.16858017 33.87503052 81.17617798 C36.14456181 81.19077527 38.41402324 81.1975968 40.68359375 81.203125 C42.26156109 81.20887757 43.83952842 81.21463529 45.41749573 81.22039795 C48.72535528 81.23090039 52.03319058 81.2367483 55.34106445 81.24023438 C59.57923654 81.24572371 63.8170881 81.26976405 68.05515957 81.29820633 C71.31424396 81.31682901 74.573251 81.32203806 77.83238411 81.32357025 C79.39489562 81.32659714 80.95740575 81.33462693 82.51986504 81.34775543 C84.70546786 81.36481203 86.89028534 81.36293735 89.07592773 81.35644531 C90.31930405 81.36009094 91.56268036 81.36373657 92.84373474 81.36749268 C96.2642161 80.96923659 97.65246262 80.48866613 100 78 C101.49802621 74.4751376 101.16038243 70.52787555 101.20532227 66.75292969 C101.21522186 66.03058136 101.22512146 65.30823303 101.23532104 64.56399536 C101.26683484 62.18332158 101.2916533 59.80262787 101.31640625 57.421875 C101.33698453 55.76848846 101.35798123 54.11510709 101.37937927 52.46173096 C101.43450974 48.11511417 101.48395873 43.76845062 101.53222656 39.42175293 C101.58250757 34.9842514 101.63815916 30.54681758 101.69335938 26.109375 C101.80083055 17.40630576 101.90180349 8.70317883 102 0 C108.27 0 114.54 0 121 0 C121.06797285 10.12760575 121.12292939 20.25505819 121.15543652 30.38284111 C121.171044 35.08636882 121.1921917 39.78973137 121.22631836 44.49316406 C121.25908815 49.03840873 121.27688994 53.58349527 121.28463173 58.12884903 C121.29014377 59.85666515 121.30090692 61.58447334 121.31719017 63.31222153 C121.51267376 84.92809702 121.51267376 84.92809702 116.34294128 90.92086792 C110.59538335 96.40348648 104.30826722 97.29961486 96.56713867 97.2746582 C95.74191208 97.27976913 94.91668549 97.28488007 94.06645203 97.29014587 C91.35021624 97.30399585 88.63423557 97.30308827 85.91796875 97.30078125 C84.01996263 97.30467129 82.12195738 97.3090066 80.22395325 97.31376648 C76.24880144 97.32121926 72.27373846 97.32094467 68.29858398 97.31567383 C63.22135804 97.30988683 58.1444978 97.3267962 53.06733227 97.3500185 C49.14750567 97.36480082 45.22776618 97.36562132 41.30791664 97.36250877 C39.43694651 97.36301993 37.56597124 97.3682189 35.69502831 97.37832069 C33.07013061 97.39075243 30.44593266 97.38385302 27.82104492 97.37231445 C27.05866516 97.37995819 26.2962854 97.38760193 25.51080322 97.39547729 C18.70241525 97.32981668 11.3636127 95.88916946 6.125 91.25 C5.59132813 90.80140625 5.05765625 90.3528125 4.5078125 89.890625 C0.32271458 84.64298927 -0.4368489 79.3056687 -0.34057617 72.76977539 C-0.34101425 71.97871399 -0.34145233 71.18765259 -0.34190369 70.37261963 C-0.33982828 67.78070636 -0.31655705 65.18945529 -0.29296875 62.59765625 C-0.28736834 60.79162448 -0.28310034 58.98558814 -0.28010559 57.17955017 C-0.26869185 52.44317885 -0.23925476 47.70708676 -0.20599365 42.9708252 C-0.17521772 38.13097917 -0.16158421 33.2910877 -0.14648438 28.45117188 C-0.11438149 18.96730596 -0.06164213 9.48371997 0 0 Z " fill="#ED9BA4" transform="translate(1126,87)"/>
<path d="M0 0 C39.27 0 78.54 0 119 0 C119 5.28 119 10.56 119 16 C102.83 16 86.66 16 70 16 C70 42.73 70 69.46 70 97 C63.73 97 57.46 97 51 97 C51 70.27 51 43.54 51 16 C34.17 16 17.34 16 0 16 C0 10.72 0 5.44 0 0 Z " fill="#EE9DA6" transform="translate(870,87)"/>
<path d="M0 0 C6.12305867 0.15059894 6.12305867 0.15059894 8.50061035 2.46279907 C9.84856381 4.36491192 11.01954092 6.31142677 12.17578125 8.3359375 C13.12647942 9.89903066 14.07904512 11.46098907 15.03320312 13.02197266 C15.53271484 13.85367981 16.03222656 14.68538696 16.546875 15.54229736 C19.26691646 19.99381942 22.16665179 24.32562216 25.05078125 28.671875 C26.2732477 30.5257376 27.49524739 32.37990807 28.71679688 34.234375 C29.33031006 35.16443359 29.94382324 36.09449219 30.57592773 37.05273438 C32.42592106 39.85744556 34.27456593 42.66304189 36.12304688 45.46875 C37.34881363 47.3282204 38.57472449 49.18759581 39.80078125 51.046875 C40.39891632 51.95401245 40.99705139 52.8611499 41.61331177 53.79577637 C44.78073149 58.59364151 47.9618786 63.38182473 51.16162109 68.15820312 C51.81237106 69.13025696 52.46312103 70.10231079 53.1335907 71.1038208 C54.38509043 72.97139408 55.63861016 74.83761566 56.8943634 76.70233154 C57.45024643 77.53178284 58.00612946 78.36123413 58.57885742 79.21582031 C59.07189865 79.94875305 59.56493988 80.68168579 60.07292175 81.43682861 C61.125 83.125 61.125 83.125 61.125 84.125 C58.09812002 84.39714705 55.09576151 84.59353109 52.0625 84.75 C51.21494141 84.83378906 50.36738281 84.91757812 49.49414062 85.00390625 C46.74765248 85.10994826 44.73760146 84.99969995 42.125 84.125 C39.10658501 81.19708761 37.20157485 77.75650098 35.125 74.125 C33.92594397 72.26436748 32.71873661 70.40896558 31.50390625 68.55859375 C30.2296609 66.56124033 28.95760865 64.56248648 27.6875 62.5625 C26.28906879 60.36978766 24.89063108 58.17707945 23.4921875 55.984375 C22.77039563 54.85098289 22.04871687 53.71751874 21.32714844 52.58398438 C18.36766028 47.9349143 15.40558614 43.28750011 12.43920898 38.64282227 C11.04655852 36.46199975 9.65538796 34.2802313 8.26586914 32.09741211 C7.63543701 31.1100708 7.00500488 30.12272949 6.35546875 29.10546875 C5.80270264 28.23817139 5.24993652 27.37087402 4.68041992 26.47729492 C3.23631486 24.29334385 1.72023581 22.20027668 0.125 20.125 C-2.10445305 23.54147987 -4.33351577 26.95821424 -6.5625 30.375 C-7.24368896 31.41897949 -7.92487793 32.46295898 -8.62670898 33.53857422 C-12.38313814 39.29747142 -16.1360758 45.05848479 -19.86694336 50.83398438 C-20.916095 52.44791328 -21.97426924 54.05601184 -23.04125977 55.65820312 C-25.94160067 60.02871228 -28.62102434 64.43042723 -31.12890625 69.0390625 C-39.08280595 83.10027582 -39.08280595 83.10027582 -44.34570312 85.03173828 C-50.00742291 85.91075066 -55.29478658 85.24937136 -60.875 84.125 C-60.48570312 83.5165625 -60.09640625 82.908125 -59.6953125 82.28125 C-56.6635065 77.53095489 -53.65530579 72.77123952 -50.70150757 67.97198486 C-43.85942456 56.8992546 -36.55526036 46.14524271 -29.25 35.375 C-27.33449662 32.54534516 -25.41978735 29.71515427 -23.50518799 26.8848877 C-22.28232786 25.07750999 -21.05899188 23.27045415 -19.83514404 21.46374512 C-15.93035063 15.69697217 -12.05503996 9.91224893 -8.21728516 4.10058594 C-5.8674586 0.64209257 -4.19978493 0.54350158 0 0 Z " fill="#3C3B48" transform="translate(867.875,220.875)"/>
<path d="M0 0 C56.43 0 112.86 0 171 0 C171 4.95 171 9.9 171 15 C114.57 15 58.14 15 0 15 C0 10.05 0 5.1 0 0 Z " fill="#363543" transform="translate(1076,256)"/>
<path d="M0 0 C56.43 0 112.86 0 171 0 C171 4.95 171 9.9 171 15 C114.57 15 58.14 15 0 15 C0 10.05 0 5.1 0 0 Z " fill="#363542" transform="translate(504,256)"/>
<path d="M0 0 C5.28 0 10.56 0 16 0 C16 23.1 16 46.2 16 70 C38.11 70 60.22 70 83 70 C83 74.29 83 78.58 83 83 C55.61 83 28.22 83 0 83 C0 55.61 0 28.22 0 0 Z " fill="#343340" transform="translate(722,222)"/>
<path d="M0 0 C6.6 0 13.2 0 20 0 C20 32.01 20 64.02 20 97 C13.4 97 6.8 97 0 97 C0 64.99 0 32.98 0 0 Z " fill="#EE9FA7" transform="translate(839,87)"/>
<path d="M0 0 C6.27 0 12.54 0 19 0 C19 32.01 19 64.02 19 97 C12.73 97 6.46 97 0 97 C0 64.99 0 32.98 0 0 Z " fill="#ED9AA3" transform="translate(638,87)"/>
<path d="M0 0 C2.63183484 1.72430559 2.96429365 2.87090782 3.8125 5.9375 C4.01028636 9.16801051 3.92199114 10.43734514 2 13 C-0.56265486 14.92199114 -1.83198949 15.01028636 -5.0625 14.8125 C-8.12909218 13.96429365 -9.27569441 13.63183484 -11 11 C-11.85736616 7.90029156 -12.25878885 5.84694533 -11.3125 2.75 C-8.13760231 -1.48319691 -4.87987576 -1.34975287 0 0 Z " fill="#F4C3C9" transform="translate(872,263)"/>
<path d="M0 0 C0.66 0.33 1.32 0.66 2 1 C1.34 1.66 0.68 2.32 0 3 C0.33 3.66 0.66 4.32 1 5 C-4.61 7.64 -10.22 10.28 -16 13 C-16.33 12.34 -16.66 11.68 -17 11 C-14.21681883 9.13284189 -11.42220667 7.28356646 -8.625 5.4375 C-7.8309375 4.90447266 -7.036875 4.37144531 -6.21875 3.82226562 C-5.45820313 3.32275391 -4.69765625 2.82324219 -3.9140625 2.30859375 C-2.8614624 1.60947876 -2.8614624 1.60947876 -1.78759766 0.89624023 C-1.19769043 0.60048096 -0.6077832 0.30472168 0 0 Z " fill="#807F88" transform="translate(30,283)"/>
<path d="M0 0 C7.48291572 6.15034169 7.48291572 6.15034169 10 10 C6.56049636 9.38801624 4.48435515 8.07941153 1.75 5.9375 C1.04359375 5.38964844 0.3371875 4.84179688 -0.390625 4.27734375 C-0.92171875 3.85582031 -1.4528125 3.43429687 -2 3 C-1.34 2.67 -0.68 2.34 0 2 C0 1.34 0 0.68 0 0 Z " fill="#9D9DA3" transform="translate(478,285)"/>
<path d="M0 0 C-0.804375 0.3403125 -0.804375 0.3403125 -1.625 0.6875 C-4.78500863 2.43382056 -7.2676983 4.6402849 -10 7 C-8.07091409 1.3611335 -6.01450566 -0.32510841 0 0 Z " fill="#808088" transform="translate(253,107)"/>
<path d="M0 0 C0.66 0.33 1.32 0.66 2 1 C-0.31 3.31 -2.62 5.62 -5 8 C-5 5 -5 5 -2.5 2.3125 C-1.675 1.549375 -0.85 0.78625 0 0 Z " fill="#F2B6BC" transform="translate(1003,92)"/>
</svg>
